<svg xmlns="http://www.w3.org/2000/svg" viewBox="26.1 45.6 933.7 933.7"><path fill="currentColor" d="M331.31 469.708C330.176 417.435 330.982 362.938 330.773 310.494L330.656 253.359C330.793 229.183 328.603 210.909 346.592 192.078C357.116 180.947 371.743 174.617 387.062 174.565C402.122 174.364 416.618 180.286 427.23 190.975C444.673 208.242 444.202 225.27 444.378 247.809L444.488 290.398L444.442 438.009C444.433 447.843 442.602 464.344 457.571 463.425C461.135 463.216 464.467 461.593 466.831 458.918C471.396 453.657 469.837 433.473 469.816 426.096L469.742 379.921L469.66 221.699C469.718 211.136 469.715 200.573 469.651 190.009C469.597 175.351 468.257 161.198 473.473 147.485C480.968 127.31 499.334 113.194 520.758 111.14C551.481 108.041 579.441 130.335 582.682 161.576C583.671 171.104 583.251 182.02 583.251 191.697L583.092 239.505L582.474 390.338L582.467 429.961C582.471 436.668 582.648 444.307 582.735 451.24C582.895 463.868 596.431 466.941 603.368 458.745C607.219 454.195 605.987 436.487 605.948 429.44L605.906 394.859L605.912 278.536C605.913 261.537 603.918 226.642 609.005 212.262C615.628 193.539 632.603 178.853 652.25 175.648C667.23 173.205 682.046 176.205 694.419 185.124C706.392 193.752 715.135 207.021 717.427 221.683C718.74 230.076 718.339 238.879 718.348 247.358L718.348 283.355L718.211 406.196L718.144 434.947C718.11 441.264 717.712 448.126 718.586 454.304C720.104 465.029 736.37 466.731 741.254 457.64C745.211 450.275 743.824 437.177 743.81 428.582L743.819 349.188C743.833 339.47 743.266 319.355 744.037 310.308C744.47 305.359 745.581 300.494 747.339 295.848C753.742 279.17 769.554 266.27 786.843 262.006C801.087 258.541 816.123 260.819 828.701 268.348C846.947 279.498 856.99 298.281 856.516 319.278C856.307 328.516 856.565 338.06 856.559 347.335L856.541 414.362L856.525 546.932C856.516 583.713 858.328 621.985 851.859 658.193C844.546 697.829 829.878 735.745 808.614 769.984C765.684 838.698 699.193 888.697 619.888 906.945C546.179 923.926 468.743 910.869 404.677 870.658C384.682 858.281 366.587 843.069 350.958 825.498C338.629 811.354 328.655 796.165 317.631 781.075C297.07 753.03 276.65 724.881 256.372 696.631L177.551 587.714L149.745 549.599C146.012 544.415 141.261 538.23 137.891 532.972C134.302 527.429 131.712 521.299 130.239 514.861C126.224 497.127 129.326 478.526 138.879 463.055C147.657 448.827 161.798 438.736 178.108 435.064C195.895 431.001 214.569 434.231 229.959 444.031C234.808 447.245 239.228 451.063 243.113 455.393C247.412 460.112 252.859 468.089 256.715 473.453C264.555 484.252 272.279 495.135 279.884 506.101C286.651 515.701 294.203 525.42 301.188 535.003C310.614 547.934 321.061 563.801 331.479 575.853C330.988 566.028 331.418 552.275 331.444 542.257C331.61 518.074 331.566 493.89 331.31 469.708Z"/><path fill="currentColor" d="M331.31 469.708L332.986 469.373C335.046 471.156 335.271 477.653 336.098 480.329C343.988 505.845 356.983 528.737 377.195 546.628C390.133 558.08 406.583 568.529 423.072 574.217C437.146 578.738 448.518 581.54 462.387 587.549C520.146 612.577 555.805 666.958 560.734 729.212C562.817 755.522 558.606 771.758 556.837 796.93C555.736 795.191 555.963 794.366 555.537 792.287C555.554 789.651 555.229 786.987 555.047 784.373C548.235 686.474 468.125 604.494 370.015 596.937C346.105 595.096 344.923 596.985 331.479 575.853C330.988 566.028 331.418 552.275 331.444 542.257C331.61 518.074 331.566 493.89 331.31 469.708Z"/><path fill="currentColor" d="M555.537 792.287C555.963 794.366 555.736 795.191 556.837 796.93C556.761 797.91 556.644 803.755 555.862 804.043L555.791 803.988C555.337 802.908 555.471 793.935 555.537 792.287Z"/></svg>
